<svg width="20" height="20" viewBox="0 0 20 20" fill="none" xmlns="http://www.w3.org/2000/svg">
<path d="M4.01381 6.6655C3.94327 6.17919 3.79247 5.60031 3.61204 4.90773L3.07129 2.83172L3.06176 2.79513C3.77199 2.11058 4.58319 1.5303 5.4708 1.07888L7.10304 2.31685C7.66259 2.74127 8.13302 3.0981 8.54954 3.34436C8.76762 3.4733 8.98725 3.58222 9.2163 3.66013V6.68205C9.09317 6.7394 8.97518 6.81148 8.8649 6.89814L6.93261 8.41662C6.86052 8.47327 6.79365 8.53464 6.73217 8.6L4.05401 7.44032C4.07021 7.18713 4.05224 6.93042 4.01381 6.6655Z" fill="#6EBE6B"/>
<path d="M2.04501 8.20267C1.75003 8.45682 1.3347 8.7403 0.710208 9.16445L0.00626373 9.64256C0.0777561 7.60523 0.757993 5.72294 1.87046 4.17241L2.15011 5.24601C2.34358 5.98876 2.47219 6.48678 2.52935 6.88083C2.58386 7.25662 2.56054 7.46319 2.49921 7.62945C2.43837 7.79436 2.32465 7.96174 2.04501 8.20267Z" fill="#6EBE6B"/>
<path d="M3.30103 14.8851C3.9956 14.8851 4.58115 14.8851 5.05951 14.9413C5.31179 14.9709 5.55275 15.0178 5.78254 15.0953L7.19823 13.2429C7.14665 13.1429 7.10375 13.0373 7.07058 12.9268L6.31162 10.4004C6.27402 10.2752 6.2502 10.1482 6.23954 10.0213L3.51297 8.84063C3.37067 9.01935 3.20594 9.1824 3.0241 9.33906C2.65607 9.65615 2.16831 9.98741 1.5878 10.3817L0.0963644 11.3946C0.270976 12.6474 0.677427 13.8259 1.27092 14.8851L3.30103 14.8851Z" fill="#6EBE6B"/>
<path d="M9.79173 8.07755C9.8458 8.03506 9.90684 8.01585 9.9663 8.01585C10.0258 8.01585 10.0868 8.03506 10.1409 8.07755L12.0732 9.59602C12.1247 9.63652 12.1639 9.69387 12.1844 9.76202C12.2042 9.82799 12.2051 9.89991 12.1844 9.96881L11.4254 12.4953C11.4046 12.5648 11.3653 12.62 11.3177 12.6585C11.2651 12.701 11.2032 12.723 11.1396 12.723H8.79297C8.72939 12.723 8.66748 12.701 8.61493 12.6585C8.56728 12.62 8.52803 12.5648 8.50717 12.4953L7.7482 9.96881C7.72751 9.89991 7.72838 9.82799 7.7482 9.76202C7.76867 9.69387 7.80791 9.63651 7.85943 9.59602L9.79173 8.07755Z" fill="#6EBE6B"/>
<path d="M11.3757 3.37566C11.7974 3.13868 12.2753 2.79236 12.8436 2.38051L14.5843 1.11906C15.449 1.56852 16.2398 2.14086 16.9336 2.81298L16.388 4.90784C16.2075 5.60042 16.0567 6.17929 15.9862 6.6656C15.948 6.9291 15.93 7.18448 15.9457 7.43635L13.2034 8.60319C13.1411 8.53664 13.0733 8.47419 13 8.41662L11.0677 6.89814C10.9574 6.81148 10.8394 6.7394 10.7163 6.68205V3.67216C10.942 3.59958 11.1594 3.49725 11.3757 3.37566Z" fill="#6EBE6B"/>
<path d="M9.31295 2.05316C8.97975 1.85615 8.57803 1.55293 7.97555 1.09597L7.093 0.426609C8.00946 0.149159 8.98156 0 9.98846 0C11.021 0 12.017 0.156863 12.9539 0.448084L11.9979 1.14087C11.3859 1.58435 10.978 1.87852 10.6408 2.06803C10.3204 2.24814 10.1338 2.29193 9.97464 2.29016C9.81544 2.2884 9.6297 2.24043 9.31295 2.05316Z" fill="#6EBE6B"/>
<path d="M16.9759 9.33916C17.3439 9.65626 17.8317 9.98752 18.4122 10.3818L19.8825 11.3804C19.709 12.6385 19.3017 13.8219 18.706 14.8851L16.8478 14.8851C16.1532 14.8851 15.5677 14.8851 15.0893 14.9413C14.8265 14.9721 14.576 15.0217 14.3376 15.1052L12.748 13.2159C12.7935 13.124 12.8318 13.0274 12.862 12.9268L13.621 10.4004C13.6582 10.2765 13.6819 10.1507 13.6927 10.0251L16.4843 8.83733C16.6272 9.01738 16.7929 9.1815 16.9759 9.33916Z" fill="#6EBE6B"/>
<path d="M12.8084 16.6265C12.6066 17.0727 12.4223 17.6414 12.202 18.3213L11.7058 19.8528C11.1478 19.9496 10.574 20 9.98846 20C9.46622 20 8.95334 19.9599 8.45273 19.8825L7.94683 18.3213C7.72654 17.6414 7.54226 17.0727 7.34048 16.6265C7.23745 16.3987 7.12285 16.1861 6.98491 15.9923L8.3752 14.1731C8.50976 14.2058 8.64974 14.223 8.79297 14.223H11.1396C11.2933 14.223 11.4433 14.2031 11.5868 14.1657L13.1456 16.0183C13.0158 16.205 12.9068 16.4088 12.8084 16.6265Z" fill="#6EBE6B"/>
<path d="M6.53267 18.8232C6.29623 18.0935 6.1369 17.6053 5.97374 17.2446C5.81797 16.9001 5.68966 16.7453 5.55536 16.6457C5.42284 16.5475 5.24466 16.4733 4.88455 16.431C4.50395 16.3863 4.00703 16.3851 3.25811 16.3851H2.3009C3.45885 17.781 4.98887 18.8563 6.73863 19.4588L6.53267 18.8232Z" fill="#6EBE6B"/>
<path d="M15.2643 16.431C15.6449 16.3863 16.1418 16.3851 16.8907 16.3851H17.676C16.5611 17.729 15.1014 18.7759 13.4326 19.3896L13.6162 18.8232C13.8526 18.0935 14.0119 17.6053 14.1751 17.2446C14.3309 16.9001 14.4592 16.7453 14.5935 16.6457C14.726 16.5475 14.9042 16.4733 15.2643 16.431Z" fill="#6EBE6B"/>
<path d="M17.4707 6.88093C17.5278 6.48688 17.6564 5.98886 17.8499 5.24611L18.1234 4.1961C19.2229 5.73804 19.896 7.60576 19.9701 9.62659L19.2898 9.16455C18.6653 8.7404 18.25 8.45692 17.955 8.20277C17.6754 7.96184 17.5616 7.79446 17.5008 7.62955C17.4395 7.46329 17.4161 7.25672 17.4707 6.88093Z" fill="#6EBE6B"/>
</svg>
